<?xml version="1.0" encoding="UTF-8"?><svg xmlns="http://www.w3.org/2000/svg" xmlns:xlink="http://www.w3.org/1999/xlink" fill-opacity="1" color-rendering="auto" color-interpolation="auto" text-rendering="auto" stroke="black" stroke-linecap="square" width="958" stroke-miterlimit="10" shape-rendering="auto" stroke-opacity="1" fill="black" stroke-dasharray="none" font-weight="normal" stroke-width="1" height="677" font-family="'Dialog'" font-style="normal" stroke-linejoin="miter" font-size="12px" stroke-dashoffset="0" image-rendering="auto">
  <!--Generated by ySVG 2.6-->
  <defs id="genericDefs"/>
  <g>
    <defs id="defs1">
      <linearGradient x1="775" gradientUnits="userSpaceOnUse" x2="890" y1="601.7725" y2="667.6225" id="linearGradient1" spreadMethod="reflect">
        <stop stop-opacity="1" stop-color="rgb(232,238,247)" offset="0%"/>
        <stop stop-opacity="1" stop-color="rgb(183,201,227)" offset="100%"/>
      </linearGradient>
      <clipPath clipPathUnits="userSpaceOnUse" id="clipPath1">
        <path d="M0 0 L958 0 L958 677 L0 677 L0 0 Z"/>
      </clipPath>
      <clipPath clipPathUnits="userSpaceOnUse" id="clipPath2">
        <path d="M91 160 L1049 160 L1049 837 L91 837 L91 160 Z"/>
      </clipPath>
    </defs>
    <g fill="white" text-rendering="geometricPrecision" shape-rendering="geometricPrecision" transform="translate(-91,-160)" stroke="white">
      <rect x="91" width="958" height="677" y="160" clip-path="url(#clipPath2)" stroke="none"/>
    </g>
    <g fill="rgb(153,204,255)" text-rendering="geometricPrecision" shape-rendering="geometricPrecision" transform="matrix(1,0,0,1,-91,-160)" stroke="rgb(153,204,255)">
      <rect x="900.625" width="133" height="45" y="263.5725" clip-path="url(#clipPath2)" stroke="none"/>
    </g>
    <g text-rendering="geometricPrecision" stroke-miterlimit="1.45" shape-rendering="geometricPrecision" transform="matrix(1,0,0,1,-91,-160)" stroke-linecap="butt">
      <rect fill="none" x="900.625" width="133" height="45" y="263.5725" clip-path="url(#clipPath2)"/>
      <text x="925.0254" xml:space="preserve" y="290.2268" clip-path="url(#clipPath2)" font-family="sans-serif" stroke="none">ProzessConfig</text>
    </g>
    <g fill="rgb(153,204,255)" text-rendering="geometricPrecision" shape-rendering="geometricPrecision" transform="matrix(1,0,0,1,-91,-160)" stroke="rgb(153,204,255)">
      <rect x="900.625" width="133" height="45" y="182.0725" clip-path="url(#clipPath2)" stroke="none"/>
    </g>
    <g text-rendering="geometricPrecision" stroke-miterlimit="1.45" shape-rendering="geometricPrecision" transform="matrix(1,0,0,1,-91,-160)" stroke-linecap="butt">
      <rect fill="none" x="900.625" width="133" height="45" y="182.0725" clip-path="url(#clipPath2)"/>
      <text x="934.5439" xml:space="preserve" y="208.7268" clip-path="url(#clipPath2)" font-family="sans-serif" stroke="none">RuleConfig</text>
    </g>
    <g fill="rgb(255,255,153)" text-rendering="geometricPrecision" shape-rendering="geometricPrecision" transform="matrix(1,0,0,1,-91,-160)" stroke="rgb(255,255,153)">
      <rect x="635" width="250" height="36" y="474" clip-path="url(#clipPath2)" stroke="none"/>
    </g>
    <g text-rendering="geometricPrecision" stroke-miterlimit="1.45" shape-rendering="geometricPrecision" transform="matrix(1,0,0,1,-91,-160)" stroke-linecap="butt">
      <rect fill="none" x="635" width="250" height="36" y="474" clip-path="url(#clipPath2)"/>
      <text x="704.2422" xml:space="preserve" y="496.1543" clip-path="url(#clipPath2)" font-family="sans-serif" stroke="none">Data Management</text>
    </g>
    <g fill="rgb(255,255,153)" text-rendering="geometricPrecision" shape-rendering="geometricPrecision" transform="matrix(1,0,0,1,-91,-160)" stroke="rgb(255,255,153)">
      <rect x="629" width="98" height="81" y="594.1975" clip-path="url(#clipPath2)" stroke="none"/>
    </g>
    <g text-rendering="geometricPrecision" stroke-miterlimit="1.45" shape-rendering="geometricPrecision" transform="matrix(1,0,0,1,-91,-160)" stroke-linecap="butt">
      <rect fill="none" x="629" width="98" height="81" y="594.1975" clip-path="url(#clipPath2)"/>
      <text x="649.3711" xml:space="preserve" y="631.8674" clip-path="url(#clipPath2)" font-family="sans-serif" stroke="none">Database</text>
      <text x="651.1377" xml:space="preserve" y="645.8362" clip-path="url(#clipPath2)" font-family="sans-serif" stroke="none">Interface</text>
    </g>
    <g fill="silver" text-rendering="geometricPrecision" shape-rendering="geometricPrecision" transform="matrix(1,0,0,1,-91,-160)" stroke="silver">
      <rect x="771.5" width="122" height="58" y="714.1975" clip-path="url(#clipPath2)" stroke="none"/>
    </g>
    <g text-rendering="geometricPrecision" stroke-miterlimit="1.45" shape-rendering="geometricPrecision" transform="matrix(1,0,0,1,-91,-160)" stroke-linecap="butt">
      <rect fill="none" x="771.5" width="122" height="58" y="714.1975" clip-path="url(#clipPath2)"/>
      <text x="807.1318" xml:space="preserve" y="733.3831" clip-path="url(#clipPath2)" font-family="sans-serif" stroke="none">Optional</text>
      <text x="788.0742" xml:space="preserve" y="747.3518" clip-path="url(#clipPath2)" font-family="sans-serif" stroke="none">Other Location</text>
      <text x="805.6377" xml:space="preserve" y="761.3206" clip-path="url(#clipPath2)" font-family="sans-serif" stroke="none">Interface</text>
    </g>
    <g fill="rgb(204,255,204)" text-rendering="geometricPrecision" shape-rendering="geometricPrecision" transform="matrix(1,0,0,1,-91,-160)" stroke="rgb(204,255,204)">
      <rect x="296.0275" width="122" height="254" y="175.8125" clip-path="url(#clipPath2)" stroke="none"/>
    </g>
    <g text-rendering="geometricPrecision" stroke-miterlimit="1.45" shape-rendering="geometricPrecision" transform="matrix(1,0,0,1,-91,-160)" stroke-linecap="butt">
      <rect fill="none" x="296.0275" width="122" height="254" y="175.8125" clip-path="url(#clipPath2)"/>
      <text x="312.8244" xml:space="preserve" y="306.9668" clip-path="url(#clipPath2)" font-family="sans-serif" stroke="none">REST Interface</text>
    </g>
    <g fill="rgb(255,255,153)" text-rendering="geometricPrecision" shape-rendering="geometricPrecision" transform="matrix(1,0,0,1,-91,-160)" stroke="rgb(255,255,153)">
      <rect x="635" width="86" height="30" y="510" clip-path="url(#clipPath2)" stroke="none"/>
    </g>
    <g text-rendering="geometricPrecision" stroke-miterlimit="1.45" shape-rendering="geometricPrecision" transform="matrix(1,0,0,1,-91,-160)" stroke-linecap="butt">
      <rect fill="none" x="635" width="86" height="30" y="510" clip-path="url(#clipPath2)"/>
      <text x="647.748" xml:space="preserve" y="529.1543" clip-path="url(#clipPath2)" font-family="sans-serif" stroke="none">Core Data</text>
    </g>
    <g fill="rgb(255,255,153)" text-rendering="geometricPrecision" shape-rendering="geometricPrecision" transform="matrix(1,0,0,1,-91,-160)" stroke="rgb(255,255,153)">
      <rect x="721" width="164" height="30" y="510" clip-path="url(#clipPath2)" stroke="none"/>
    </g>
    <g text-rendering="geometricPrecision" stroke-miterlimit="1.45" shape-rendering="geometricPrecision" transform="matrix(1,0,0,1,-91,-160)" stroke-linecap="butt">
      <rect fill="none" x="721" width="164" height="30" y="510" clip-path="url(#clipPath2)"/>
      <text x="773.0908" xml:space="preserve" y="529.1543" clip-path="url(#clipPath2)" font-family="sans-serif" stroke="none">User Data</text>
    </g>
    <g fill="url(#linearGradient1)" text-rendering="geometricPrecision" shape-rendering="geometricPrecision" transform="matrix(1,0,0,1,-91,-160)" stroke="url(#linearGradient1)">
      <path d="M832.5 601.7725 L890 634.6975 L832.5 667.6225 L775 634.6975 Z" stroke="none" clip-path="url(#clipPath2)"/>
    </g>
    <g text-rendering="geometricPrecision" stroke-miterlimit="1.45" shape-rendering="geometricPrecision" transform="matrix(1,0,0,1,-91,-160)" stroke-linecap="butt">
      <path fill="none" d="M832.5 601.7725 L890 634.6975 L832.5 667.6225 L775 634.6975 Z" clip-path="url(#clipPath2)"/>
      <text x="807.501" xml:space="preserve" y="631.8674" clip-path="url(#clipPath2)" font-family="sans-serif" stroke="none">External</text>
      <text x="799.6816" xml:space="preserve" y="645.8362" clip-path="url(#clipPath2)" font-family="sans-serif" stroke="none">Datastore?</text>
    </g>
    <g fill="rgb(204,153,255)" text-rendering="geometricPrecision" shape-rendering="geometricPrecision" transform="matrix(1,0,0,1,-91,-160)" stroke="rgb(204,153,255)">
      <rect x="642" width="206.8" height="58" y="257.0725" clip-path="url(#clipPath2)" stroke="none"/>
    </g>
    <g text-rendering="geometricPrecision" stroke-miterlimit="1.45" shape-rendering="geometricPrecision" transform="matrix(1,0,0,1,-91,-160)" stroke-linecap="butt">
      <rect fill="none" x="642" width="206.8" height="58" y="257.0725" clip-path="url(#clipPath2)"/>
      <text x="702.6295" xml:space="preserve" y="290.2268" clip-path="url(#clipPath2)" font-family="sans-serif" stroke="none">Prozess Model</text>
    </g>
    <g fill="rgb(204,153,255)" text-rendering="geometricPrecision" shape-rendering="geometricPrecision" transform="matrix(1,0,0,1,-91,-160)" stroke="rgb(204,153,255)">
      <rect x="642" width="206.8" height="58" y="175.5725" clip-path="url(#clipPath2)" stroke="none"/>
    </g>
    <g text-rendering="geometricPrecision" stroke-miterlimit="1.45" shape-rendering="geometricPrecision" transform="matrix(1,0,0,1,-91,-160)" stroke-linecap="butt">
      <rect fill="none" x="642" width="206.8" height="58" y="175.5725" clip-path="url(#clipPath2)"/>
      <text x="712.1481" xml:space="preserve" y="208.7268" clip-path="url(#clipPath2)" font-family="sans-serif" stroke="none">Rule Model</text>
    </g>
    <g fill="rgb(204,255,204)" text-rendering="geometricPrecision" shape-rendering="geometricPrecision" transform="matrix(1,0,0,1,-91,-160)" stroke="rgb(204,255,204)">
      <rect x="296.0275" width="122" height="45" y="469.5" clip-path="url(#clipPath2)" stroke="none"/>
    </g>
    <g text-rendering="geometricPrecision" stroke-miterlimit="1.45" shape-rendering="geometricPrecision" transform="matrix(1,0,0,1,-91,-160)" stroke-linecap="butt">
      <rect fill="none" x="296.0275" width="122" height="45" y="469.5" clip-path="url(#clipPath2)"/>
      <text x="310.964" xml:space="preserve" y="496.1543" clip-path="url(#clipPath2)" font-family="sans-serif" stroke="none">Auth Validation</text>
    </g>
    <g fill="rgb(204,153,255)" text-rendering="geometricPrecision" shape-rendering="geometricPrecision" transform="matrix(1,0,0,1,-91,-160)" stroke="rgb(204,153,255)">
      <rect x="454.7084" width="133" height="58" y="342.4624" clip-path="url(#clipPath2)" stroke="none"/>
    </g>
    <g text-rendering="geometricPrecision" stroke-miterlimit="1.45" shape-rendering="geometricPrecision" transform="matrix(1,0,0,1,-91,-160)" stroke-linecap="butt">
      <rect fill="none" x="454.7084" width="133" height="58" y="342.4624" clip-path="url(#clipPath2)"/>
      <text x="495.2338" xml:space="preserve" y="368.6324" clip-path="url(#clipPath2)" font-family="sans-serif" stroke="none">Progress</text>
      <text x="499.8627" xml:space="preserve" y="382.6011" clip-path="url(#clipPath2)" font-family="sans-serif" stroke="none">History</text>
      <path fill="none" d="M678 540 L678 594.1975" clip-path="url(#clipPath2)"/>
      <path fill="none" d="M832.5 540.0185 L832.5 601.761" clip-path="url(#clipPath2)"/>
      <path fill="none" d="M774.9866 634.6975 L727 634.6975" clip-path="url(#clipPath2)"/>
      <rect x="740.8408" y="625.7131" clip-path="url(#clipPath2)" fill="white" width="20.3184" height="17.9688" stroke="none"/>
      <rect stroke-linecap="square" x="740.8408" y="625.7131" clip-path="url(#clipPath2)" fill="none" width="20.3184" height="17.9688" stroke-miterlimit="1.6"/>
      <text x="742.8408" xml:space="preserve" y="638.8518" clip-path="url(#clipPath2)" font-family="sans-serif" stroke="none">No</text>
      <path fill="none" d="M832.5 667.6237 L832.5 714.1975" clip-path="url(#clipPath2)"/>
      <rect x="820.0176" y="681.9256" clip-path="url(#clipPath2)" fill="white" width="24.9648" height="17.9688" stroke="none"/>
      <rect stroke-linecap="square" x="820.0176" y="681.9256" clip-path="url(#clipPath2)" fill="none" width="24.9648" height="17.9688" stroke-miterlimit="1.6"/>
      <text x="822.0176" xml:space="preserve" y="695.0643" clip-path="url(#clipPath2)" font-family="sans-serif" stroke="none">Yes</text>
      <path fill="none" d="M900.625 286.0725 L848.8 286.0725" clip-path="url(#clipPath2)"/>
      <path fill="none" d="M641.9766 281.0575 L418.0584 281.0575" clip-path="url(#clipPath2)"/>
      <path fill="none" d="M760 315.0432 L760 474" clip-path="url(#clipPath2)"/>
      <path fill="none" d="M900.625 204.5725 L848.8 204.5725" clip-path="url(#clipPath2)"/>
      <path fill="none" d="M642 204.5725 L418.0547 204.5725" clip-path="url(#clipPath2)"/>
      <path fill="none" d="M357.0275 429.8125 L357.0275 469.5" clip-path="url(#clipPath2)"/>
      <path fill="none" d="M418.0275 492 L635 492" clip-path="url(#clipPath2)"/>
      <path fill="none" d="M418.0584 371.4625 L454.7084 371.4625" clip-path="url(#clipPath2)"/>
      <path fill="none" d="M641.9766 304.0207 L521.2084 304.0207 L521.2084 342.4625" clip-path="url(#clipPath2)"/>
      <path fill="none" d="M587.7084 371.4625 L668.1084 371.4625 L668.1084 474.0191" clip-path="url(#clipPath2)"/>
    </g>
    <g stroke-linecap="round" transform="matrix(1,0,0,1,-91,-160)" stroke-dashoffset="2" text-rendering="geometricPrecision" shape-rendering="geometricPrecision" stroke-dasharray="0,8" stroke-width="2" stroke-miterlimit="1.45">
      <path fill="none" d="M296.0275 302.8125 L112.0235 302.8125" clip-path="url(#clipPath2)"/>
      <rect x="116.9892" y="293.8281" clip-path="url(#clipPath2)" fill="white" width="151.1816" height="17.9688" stroke="none"/>
    </g>
    <g fill="gray" text-rendering="geometricPrecision" stroke-miterlimit="1.6" shape-rendering="geometricPrecision" transform="matrix(1,0,0,1,-91,-160)" stroke="gray">
      <rect fill="none" x="116.9892" width="151.1816" height="17.9688" y="293.8281" clip-path="url(#clipPath2)"/>
    </g>
    <g stroke-linecap="butt" transform="matrix(1,0,0,1,-91,-160)" fill="rgb(51,51,51)" text-rendering="geometricPrecision" font-family="sans-serif" shape-rendering="geometricPrecision" stroke="rgb(51,51,51)" stroke-miterlimit="1.45">
      <text x="118.9892" xml:space="preserve" y="306.9668" clip-path="url(#clipPath2)" stroke="none">Frontend &amp; Webservices</text>
    </g>
    <g stroke-linecap="round" transform="matrix(1,0,0,1,-91,-160)" stroke-dashoffset="2" text-rendering="geometricPrecision" shape-rendering="geometricPrecision" stroke-dasharray="0,8" stroke-width="2" stroke-miterlimit="1.45">
      <path fill="none" d="M296.0275 492 L112.007 492" clip-path="url(#clipPath2)"/>
      <rect x="116.9892" y="483.0156" clip-path="url(#clipPath2)" fill="white" width="138.0332" height="17.9688" stroke="none"/>
    </g>
    <g fill="gray" text-rendering="geometricPrecision" stroke-miterlimit="1.6" shape-rendering="geometricPrecision" transform="matrix(1,0,0,1,-91,-160)" stroke="gray">
      <rect fill="none" x="116.9892" width="138.0332" height="17.9688" y="483.0156" clip-path="url(#clipPath2)"/>
    </g>
    <g stroke-linecap="butt" transform="matrix(1,0,0,1,-91,-160)" fill="rgb(51,51,51)" text-rendering="geometricPrecision" font-family="sans-serif" shape-rendering="geometricPrecision" stroke="rgb(51,51,51)" stroke-miterlimit="1.45">
      <text x="118.9892" xml:space="preserve" y="496.1543" clip-path="url(#clipPath2)" stroke="none">authentication service</text>
    </g>
    <g stroke-linecap="round" transform="matrix(1,0,0,1,-91,-160)" stroke-dashoffset="2" text-rendering="geometricPrecision" shape-rendering="geometricPrecision" stroke-dasharray="0,8" stroke-width="2" stroke-miterlimit="1.45">
      <path fill="none" d="M677.6536 675.1975 L676.4254 818.7694" clip-path="url(#clipPath2)"/>
      <rect x="645.916" y="795.8038" clip-path="url(#clipPath2)" fill="white" width="61.2578" height="17.9688" stroke="none"/>
    </g>
    <g fill="gray" text-rendering="geometricPrecision" stroke-miterlimit="1.6" shape-rendering="geometricPrecision" transform="matrix(1,0,0,1,-91,-160)" stroke="gray">
      <rect fill="none" x="645.916" width="61.2578" height="17.9688" y="795.8038" clip-path="url(#clipPath2)"/>
    </g>
    <g stroke-linecap="butt" transform="matrix(1,0,0,1,-91,-160)" fill="rgb(51,51,51)" text-rendering="geometricPrecision" font-family="sans-serif" shape-rendering="geometricPrecision" stroke="rgb(51,51,51)" stroke-miterlimit="1.45">
      <text x="647.916" xml:space="preserve" y="808.9424" clip-path="url(#clipPath2)" stroke="none">Database</text>
    </g>
    <g stroke-linecap="round" transform="matrix(1,0,0,1,-91,-160)" stroke-dashoffset="2" text-rendering="geometricPrecision" shape-rendering="geometricPrecision" stroke-dasharray="0,8" stroke-width="2" stroke-miterlimit="1.45">
      <path fill="none" d="M832.5 772.1975 L832.5 818.8124" clip-path="url(#clipPath2)"/>
      <rect x="800.8662" y="795.8038" clip-path="url(#clipPath2)" fill="white" width="63.2676" height="17.9688" stroke="none"/>
    </g>
    <g fill="gray" text-rendering="geometricPrecision" stroke-miterlimit="1.6" shape-rendering="geometricPrecision" transform="matrix(1,0,0,1,-91,-160)" stroke="gray">
      <rect fill="none" x="800.8662" width="63.2676" height="17.9688" y="795.8038" clip-path="url(#clipPath2)"/>
    </g>
    <g stroke-linecap="butt" transform="matrix(1,0,0,1,-91,-160)" fill="rgb(51,51,51)" text-rendering="geometricPrecision" font-family="sans-serif" shape-rendering="geometricPrecision" stroke="rgb(51,51,51)" stroke-miterlimit="1.45">
      <text x="802.8662" xml:space="preserve" y="808.9424" clip-path="url(#clipPath2)" stroke="none">Datastore</text>
    </g>
  </g>
</svg>
