<?xml version="1.0" encoding="UTF-8"?><svg xmlns="http://www.w3.org/2000/svg" xmlns:xlink="http://www.w3.org/1999/xlink" fill-opacity="1" color-rendering="auto" color-interpolation="auto" text-rendering="auto" stroke="black" stroke-linecap="square" width="869" stroke-miterlimit="10" shape-rendering="auto" stroke-opacity="1" fill="black" stroke-dasharray="none" font-weight="normal" stroke-width="1" height="677" font-family="'Dialog'" font-style="normal" stroke-linejoin="miter" font-size="12px" stroke-dashoffset="0" image-rendering="auto">
  <!--Generated by ySVG 2.6-->
  <defs id="genericDefs"/>
  <g>
    <defs id="defs1">
      <linearGradient x1="744.0275" gradientUnits="userSpaceOnUse" x2="859.0275" y1="601.7725" y2="667.6225" id="linearGradient1" spreadMethod="reflect">
        <stop stop-opacity="1" stop-color="rgb(232,238,247)" offset="0%"/>
        <stop stop-opacity="1" stop-color="rgb(183,201,227)" offset="100%"/>
      </linearGradient>
      <clipPath clipPathUnits="userSpaceOnUse" id="clipPath1">
        <path d="M0 0 L869 0 L869 677 L0 677 L0 0 Z"/>
      </clipPath>
      <clipPath clipPathUnits="userSpaceOnUse" id="clipPath2">
        <path d="M149 160 L1018 160 L1018 837 L149 837 L149 160 Z"/>
      </clipPath>
    </defs>
    <g fill="white" text-rendering="geometricPrecision" shape-rendering="geometricPrecision" transform="translate(-149,-160)" stroke="white">
      <rect x="149" width="869" height="677" y="160" clip-path="url(#clipPath2)" stroke="none"/>
    </g>
    <g fill="rgb(153,204,255)" text-rendering="geometricPrecision" shape-rendering="geometricPrecision" transform="matrix(1,0,0,1,-149,-160)" stroke="rgb(153,204,255)">
      <rect x="869.6525" width="133" height="45" y="263.5725" clip-path="url(#clipPath2)" stroke="none"/>
    </g>
    <g text-rendering="geometricPrecision" stroke-miterlimit="1.45" shape-rendering="geometricPrecision" transform="matrix(1,0,0,1,-149,-160)" stroke-linecap="butt">
      <rect fill="none" x="869.6525" width="133" height="45" y="263.5725" clip-path="url(#clipPath2)"/>
      <text x="894.0529" xml:space="preserve" y="290.2268" clip-path="url(#clipPath2)" font-family="sans-serif" stroke="none">ProzessConfig</text>
    </g>
    <g fill="rgb(153,204,255)" text-rendering="geometricPrecision" shape-rendering="geometricPrecision" transform="matrix(1,0,0,1,-149,-160)" stroke="rgb(153,204,255)">
      <rect x="869.6525" width="133" height="45" y="182.0725" clip-path="url(#clipPath2)" stroke="none"/>
    </g>
    <g text-rendering="geometricPrecision" stroke-miterlimit="1.45" shape-rendering="geometricPrecision" transform="matrix(1,0,0,1,-149,-160)" stroke-linecap="butt">
      <rect fill="none" x="869.6525" width="133" height="45" y="182.0725" clip-path="url(#clipPath2)"/>
      <text x="903.5715" xml:space="preserve" y="208.7268" clip-path="url(#clipPath2)" font-family="sans-serif" stroke="none">RuleConfig</text>
    </g>
    <g fill="rgb(255,255,153)" text-rendering="geometricPrecision" shape-rendering="geometricPrecision" transform="matrix(1,0,0,1,-149,-160)" stroke="rgb(255,255,153)">
      <rect x="604.0275" width="250" height="36" y="474" clip-path="url(#clipPath2)" stroke="none"/>
    </g>
    <g text-rendering="geometricPrecision" stroke-miterlimit="1.45" shape-rendering="geometricPrecision" transform="matrix(1,0,0,1,-149,-160)" stroke-linecap="butt">
      <rect fill="none" x="604.0275" width="250" height="36" y="474" clip-path="url(#clipPath2)"/>
      <text x="673.2697" xml:space="preserve" y="496.1543" clip-path="url(#clipPath2)" font-family="sans-serif" stroke="none">Data Management</text>
    </g>
    <g fill="rgb(255,255,153)" text-rendering="geometricPrecision" shape-rendering="geometricPrecision" transform="matrix(1,0,0,1,-149,-160)" stroke="rgb(255,255,153)">
      <rect x="598.0275" width="98" height="81" y="594.1975" clip-path="url(#clipPath2)" stroke="none"/>
    </g>
    <g text-rendering="geometricPrecision" stroke-miterlimit="1.45" shape-rendering="geometricPrecision" transform="matrix(1,0,0,1,-149,-160)" stroke-linecap="butt">
      <rect fill="none" x="598.0275" width="98" height="81" y="594.1975" clip-path="url(#clipPath2)"/>
      <text x="618.3986" xml:space="preserve" y="631.8674" clip-path="url(#clipPath2)" font-family="sans-serif" stroke="none">Database</text>
      <text x="620.1652" xml:space="preserve" y="645.8362" clip-path="url(#clipPath2)" font-family="sans-serif" stroke="none">Interface</text>
    </g>
    <g fill="silver" text-rendering="geometricPrecision" shape-rendering="geometricPrecision" transform="matrix(1,0,0,1,-149,-160)" stroke="silver">
      <rect x="740.5275" width="122" height="58" y="714.1975" clip-path="url(#clipPath2)" stroke="none"/>
    </g>
    <g text-rendering="geometricPrecision" stroke-miterlimit="1.45" shape-rendering="geometricPrecision" transform="matrix(1,0,0,1,-149,-160)" stroke-linecap="butt">
      <rect fill="none" x="740.5275" width="122" height="58" y="714.1975" clip-path="url(#clipPath2)"/>
      <text x="776.1594" xml:space="preserve" y="733.3831" clip-path="url(#clipPath2)" font-family="sans-serif" stroke="none">Optional</text>
      <text x="757.1017" xml:space="preserve" y="747.3518" clip-path="url(#clipPath2)" font-family="sans-serif" stroke="none">Other Location</text>
      <text x="774.6652" xml:space="preserve" y="761.3206" clip-path="url(#clipPath2)" font-family="sans-serif" stroke="none">Interface</text>
    </g>
    <g fill="rgb(204,255,204)" text-rendering="geometricPrecision" shape-rendering="geometricPrecision" transform="matrix(1,0,0,1,-149,-160)" stroke="rgb(204,255,204)">
      <rect x="296.0275" width="122" height="254" y="175.8125" clip-path="url(#clipPath2)" stroke="none"/>
    </g>
    <g text-rendering="geometricPrecision" stroke-miterlimit="1.45" shape-rendering="geometricPrecision" transform="matrix(1,0,0,1,-149,-160)" stroke-linecap="butt">
      <rect fill="none" x="296.0275" width="122" height="254" y="175.8125" clip-path="url(#clipPath2)"/>
      <text x="312.8244" xml:space="preserve" y="306.9668" clip-path="url(#clipPath2)" font-family="sans-serif" stroke="none">REST Interface</text>
    </g>
    <g fill="rgb(255,255,153)" text-rendering="geometricPrecision" shape-rendering="geometricPrecision" transform="matrix(1,0,0,1,-149,-160)" stroke="rgb(255,255,153)">
      <rect x="604.0275" width="86" height="30" y="510" clip-path="url(#clipPath2)" stroke="none"/>
    </g>
    <g text-rendering="geometricPrecision" stroke-miterlimit="1.45" shape-rendering="geometricPrecision" transform="matrix(1,0,0,1,-149,-160)" stroke-linecap="butt">
      <rect fill="none" x="604.0275" width="86" height="30" y="510" clip-path="url(#clipPath2)"/>
      <text x="616.7756" xml:space="preserve" y="529.1543" clip-path="url(#clipPath2)" font-family="sans-serif" stroke="none">Core Data</text>
    </g>
    <g fill="rgb(255,255,153)" text-rendering="geometricPrecision" shape-rendering="geometricPrecision" transform="matrix(1,0,0,1,-149,-160)" stroke="rgb(255,255,153)">
      <rect x="690.0275" width="164" height="30" y="510" clip-path="url(#clipPath2)" stroke="none"/>
    </g>
    <g text-rendering="geometricPrecision" stroke-miterlimit="1.45" shape-rendering="geometricPrecision" transform="matrix(1,0,0,1,-149,-160)" stroke-linecap="butt">
      <rect fill="none" x="690.0275" width="164" height="30" y="510" clip-path="url(#clipPath2)"/>
      <text x="742.1183" xml:space="preserve" y="529.1543" clip-path="url(#clipPath2)" font-family="sans-serif" stroke="none">User Data</text>
    </g>
    <g fill="url(#linearGradient1)" text-rendering="geometricPrecision" shape-rendering="geometricPrecision" transform="matrix(1,0,0,1,-149,-160)" stroke="url(#linearGradient1)">
      <path d="M801.5275 601.7725 L859.0275 634.6975 L801.5275 667.6225 L744.0275 634.6975 Z" stroke="none" clip-path="url(#clipPath2)"/>
    </g>
    <g text-rendering="geometricPrecision" stroke-miterlimit="1.45" shape-rendering="geometricPrecision" transform="matrix(1,0,0,1,-149,-160)" stroke-linecap="butt">
      <path fill="none" d="M801.5275 601.7725 L859.0275 634.6975 L801.5275 667.6225 L744.0275 634.6975 Z" clip-path="url(#clipPath2)"/>
      <text x="776.5285" xml:space="preserve" y="631.8674" clip-path="url(#clipPath2)" font-family="sans-serif" stroke="none">External</text>
      <text x="768.7092" xml:space="preserve" y="645.8362" clip-path="url(#clipPath2)" font-family="sans-serif" stroke="none">Datastore?</text>
    </g>
    <g fill="rgb(204,153,255)" text-rendering="geometricPrecision" shape-rendering="geometricPrecision" transform="matrix(1,0,0,1,-149,-160)" stroke="rgb(204,153,255)">
      <rect x="611.0275" width="206.8" height="58" y="257.0725" clip-path="url(#clipPath2)" stroke="none"/>
    </g>
    <g text-rendering="geometricPrecision" stroke-miterlimit="1.45" shape-rendering="geometricPrecision" transform="matrix(1,0,0,1,-149,-160)" stroke-linecap="butt">
      <rect fill="none" x="611.0275" width="206.8" height="58" y="257.0725" clip-path="url(#clipPath2)"/>
      <text x="671.657" xml:space="preserve" y="290.2268" clip-path="url(#clipPath2)" font-family="sans-serif" stroke="none">Prozess Model</text>
    </g>
    <g fill="rgb(204,153,255)" text-rendering="geometricPrecision" shape-rendering="geometricPrecision" transform="matrix(1,0,0,1,-149,-160)" stroke="rgb(204,153,255)">
      <rect x="611.0275" width="206.8" height="58" y="175.5725" clip-path="url(#clipPath2)" stroke="none"/>
    </g>
    <g text-rendering="geometricPrecision" stroke-miterlimit="1.45" shape-rendering="geometricPrecision" transform="matrix(1,0,0,1,-149,-160)" stroke-linecap="butt">
      <rect fill="none" x="611.0275" width="206.8" height="58" y="175.5725" clip-path="url(#clipPath2)"/>
      <text x="681.1755" xml:space="preserve" y="208.7268" clip-path="url(#clipPath2)" font-family="sans-serif" stroke="none">Rule Model</text>
    </g>
    <g fill="rgb(204,255,204)" text-rendering="geometricPrecision" shape-rendering="geometricPrecision" transform="matrix(1,0,0,1,-149,-160)" stroke="rgb(204,255,204)">
      <rect x="296.0275" width="122" height="45" y="469.5" clip-path="url(#clipPath2)" stroke="none"/>
    </g>
    <g text-rendering="geometricPrecision" stroke-miterlimit="1.45" shape-rendering="geometricPrecision" transform="matrix(1,0,0,1,-149,-160)" stroke-linecap="butt">
      <rect fill="none" x="296.0275" width="122" height="45" y="469.5" clip-path="url(#clipPath2)"/>
      <text x="310.964" xml:space="preserve" y="496.1543" clip-path="url(#clipPath2)" font-family="sans-serif" stroke="none">Auth Validation</text>
    </g>
    <g fill="rgb(204,153,255)" text-rendering="geometricPrecision" shape-rendering="geometricPrecision" transform="matrix(1,0,0,1,-149,-160)" stroke="rgb(204,153,255)">
      <rect x="448.0275" width="133" height="58" y="342.4624" clip-path="url(#clipPath2)" stroke="none"/>
    </g>
    <g text-rendering="geometricPrecision" stroke-miterlimit="1.45" shape-rendering="geometricPrecision" transform="matrix(1,0,0,1,-149,-160)" stroke-linecap="butt">
      <rect fill="none" x="448.0275" width="133" height="58" y="342.4624" clip-path="url(#clipPath2)"/>
      <text x="488.5529" xml:space="preserve" y="368.6324" clip-path="url(#clipPath2)" font-family="sans-serif" stroke="none">Progress</text>
      <text x="493.1818" xml:space="preserve" y="382.6011" clip-path="url(#clipPath2)" font-family="sans-serif" stroke="none">History</text>
      <path fill="none" d="M647.0275 540 L647.0275 594.1975" clip-path="url(#clipPath2)"/>
      <path fill="none" d="M801.5275 540.0185 L801.5275 601.761" clip-path="url(#clipPath2)"/>
      <path fill="none" d="M744.0141 634.6975 L696.0275 634.6975" clip-path="url(#clipPath2)"/>
      <rect x="709.8683" y="625.7131" clip-path="url(#clipPath2)" fill="white" width="20.3184" height="17.9688" stroke="none"/>
      <rect stroke-linecap="square" x="709.8683" y="625.7131" clip-path="url(#clipPath2)" fill="none" width="20.3184" height="17.9688" stroke-miterlimit="1.6"/>
      <text x="711.8683" xml:space="preserve" y="638.8518" clip-path="url(#clipPath2)" font-family="sans-serif" stroke="none">No</text>
      <path fill="none" d="M801.5275 667.6237 L801.5275 714.1975" clip-path="url(#clipPath2)"/>
      <rect x="789.0451" y="681.9256" clip-path="url(#clipPath2)" fill="white" width="24.9648" height="17.9688" stroke="none"/>
      <rect stroke-linecap="square" x="789.0451" y="681.9256" clip-path="url(#clipPath2)" fill="none" width="24.9648" height="17.9688" stroke-miterlimit="1.6"/>
      <text x="791.0451" xml:space="preserve" y="695.0643" clip-path="url(#clipPath2)" font-family="sans-serif" stroke="none">Yes</text>
      <path fill="none" d="M869.6525 286.0725 L817.8275 286.0725" clip-path="url(#clipPath2)"/>
      <path fill="none" d="M611.0041 281.0575 L418.0584 281.0575" clip-path="url(#clipPath2)"/>
      <path fill="none" d="M729.0275 315.0432 L729.0275 474" clip-path="url(#clipPath2)"/>
      <path fill="none" d="M869.6525 204.5725 L817.8275 204.5725" clip-path="url(#clipPath2)"/>
      <path fill="none" d="M611.0275 204.5725 L418.0547 204.5725" clip-path="url(#clipPath2)"/>
      <path fill="none" d="M357.0275 429.8125 L357.0275 469.5" clip-path="url(#clipPath2)"/>
      <path fill="none" d="M418.0275 492 L604.0275 492" clip-path="url(#clipPath2)"/>
      <path fill="none" d="M418.0584 371.4625 L448.0275 371.4625" clip-path="url(#clipPath2)"/>
      <path fill="none" d="M611.0041 304.0207 L514.5275 304.0207 L514.5275 342.4625" clip-path="url(#clipPath2)"/>
      <path fill="none" d="M581.0275 371.4625 L637.1359 371.4625 L637.1359 474.0191" clip-path="url(#clipPath2)"/>
    </g>
    <g stroke-linecap="round" transform="matrix(1,0,0,1,-149,-160)" stroke-dashoffset="2" text-rendering="geometricPrecision" shape-rendering="geometricPrecision" stroke-dasharray="0,8" stroke-width="2" stroke-miterlimit="1.45">
      <path fill="none" d="M296.0275 302.8125 L170.0093 302.8125" clip-path="url(#clipPath2)"/>
      <rect x="174.9892" y="286.8438" clip-path="url(#clipPath2)" fill="white" width="80.1016" height="31.9375" stroke="none"/>
    </g>
    <g fill="gray" text-rendering="geometricPrecision" stroke-miterlimit="1.6" shape-rendering="geometricPrecision" transform="matrix(1,0,0,1,-149,-160)" stroke="gray">
      <rect fill="none" x="174.9892" width="80.1016" height="31.9375" y="286.8438" clip-path="url(#clipPath2)"/>
    </g>
    <g stroke-linecap="butt" transform="matrix(1,0,0,1,-149,-160)" fill="rgb(51,51,51)" text-rendering="geometricPrecision" font-family="sans-serif" shape-rendering="geometricPrecision" stroke="rgb(51,51,51)" stroke-miterlimit="1.45">
      <text x="179.5" xml:space="preserve" y="299.9824" clip-path="url(#clipPath2)" stroke="none">Frontend &amp; </text>
      <text x="176.9892" xml:space="preserve" y="313.9512" clip-path="url(#clipPath2)" stroke="none">Webservices</text>
    </g>
    <g stroke-linecap="round" transform="matrix(1,0,0,1,-149,-160)" stroke-dashoffset="2" text-rendering="geometricPrecision" shape-rendering="geometricPrecision" stroke-dasharray="0,8" stroke-width="2" stroke-miterlimit="1.45">
      <path fill="none" d="M296.0275 492 L170.007 492" clip-path="url(#clipPath2)"/>
      <rect x="174.9892" y="476.0312" clip-path="url(#clipPath2)" fill="white" width="91.2344" height="31.9375" stroke="none"/>
    </g>
    <g fill="gray" text-rendering="geometricPrecision" stroke-miterlimit="1.6" shape-rendering="geometricPrecision" transform="matrix(1,0,0,1,-149,-160)" stroke="gray">
      <rect fill="none" x="174.9892" width="91.2344" height="31.9375" y="476.0312" clip-path="url(#clipPath2)"/>
    </g>
    <g stroke-linecap="butt" transform="matrix(1,0,0,1,-149,-160)" fill="rgb(51,51,51)" text-rendering="geometricPrecision" font-family="sans-serif" shape-rendering="geometricPrecision" stroke="rgb(51,51,51)" stroke-miterlimit="1.45">
      <text x="176.9892" xml:space="preserve" y="489.1699" clip-path="url(#clipPath2)" stroke="none">authentication</text>
      <text x="199.1142" xml:space="preserve" y="503.1387" clip-path="url(#clipPath2)" stroke="none">service</text>
    </g>
    <g stroke-linecap="round" transform="matrix(1,0,0,1,-149,-160)" stroke-dashoffset="2" text-rendering="geometricPrecision" shape-rendering="geometricPrecision" stroke-dasharray="0,8" stroke-width="2" stroke-miterlimit="1.45">
      <path fill="none" d="M646.681 675.1975 L645.4528 818.7694" clip-path="url(#clipPath2)"/>
      <rect x="614.9435" y="795.8038" clip-path="url(#clipPath2)" fill="white" width="61.2578" height="17.9688" stroke="none"/>
    </g>
    <g fill="gray" text-rendering="geometricPrecision" stroke-miterlimit="1.6" shape-rendering="geometricPrecision" transform="matrix(1,0,0,1,-149,-160)" stroke="gray">
      <rect fill="none" x="614.9435" width="61.2578" height="17.9688" y="795.8038" clip-path="url(#clipPath2)"/>
    </g>
    <g stroke-linecap="butt" transform="matrix(1,0,0,1,-149,-160)" fill="rgb(51,51,51)" text-rendering="geometricPrecision" font-family="sans-serif" shape-rendering="geometricPrecision" stroke="rgb(51,51,51)" stroke-miterlimit="1.45">
      <text x="616.9435" xml:space="preserve" y="808.9424" clip-path="url(#clipPath2)" stroke="none">Database</text>
    </g>
    <g stroke-linecap="round" transform="matrix(1,0,0,1,-149,-160)" stroke-dashoffset="2" text-rendering="geometricPrecision" shape-rendering="geometricPrecision" stroke-dasharray="0,8" stroke-width="2" stroke-miterlimit="1.45">
      <path fill="none" d="M801.5275 772.1975 L801.5275 818.8124" clip-path="url(#clipPath2)"/>
      <rect x="769.8937" y="795.8038" clip-path="url(#clipPath2)" fill="white" width="63.2676" height="17.9688" stroke="none"/>
    </g>
    <g fill="gray" text-rendering="geometricPrecision" stroke-miterlimit="1.6" shape-rendering="geometricPrecision" transform="matrix(1,0,0,1,-149,-160)" stroke="gray">
      <rect fill="none" x="769.8937" width="63.2676" height="17.9688" y="795.8038" clip-path="url(#clipPath2)"/>
    </g>
    <g stroke-linecap="butt" transform="matrix(1,0,0,1,-149,-160)" fill="rgb(51,51,51)" text-rendering="geometricPrecision" font-family="sans-serif" shape-rendering="geometricPrecision" stroke="rgb(51,51,51)" stroke-miterlimit="1.45">
      <text x="771.8937" xml:space="preserve" y="808.9424" clip-path="url(#clipPath2)" stroke="none">Datastore</text>
    </g>
  </g>
</svg>
