<?xml version="1.0" encoding="UTF-8"?><svg xmlns="http://www.w3.org/2000/svg" xmlns:xlink="http://www.w3.org/1999/xlink" fill-opacity="1" color-rendering="auto" color-interpolation="auto" text-rendering="auto" stroke="black" stroke-linecap="square" width="756" stroke-miterlimit="10" shape-rendering="auto" stroke-opacity="1" fill="black" stroke-dasharray="none" font-weight="normal" stroke-width="1" height="634" font-family="'Dialog'" font-style="normal" stroke-linejoin="miter" font-size="12px" stroke-dashoffset="0" image-rendering="auto">
  <!--Generated by ySVG 2.6-->
  <defs id="genericDefs"/>
  <g>
    <defs id="defs1">
      <linearGradient x1="775" gradientUnits="userSpaceOnUse" x2="890" y1="629.7725" y2="695.6225" id="linearGradient1" spreadMethod="reflect">
        <stop stop-opacity="1" stop-color="rgb(232,238,247)" offset="0%"/>
        <stop stop-opacity="1" stop-color="rgb(183,201,227)" offset="100%"/>
      </linearGradient>
      <clipPath clipPathUnits="userSpaceOnUse" id="clipPath1">
        <path d="M0 0 L756 0 L756 634 L0 634 L0 0 Z"/>
      </clipPath>
      <clipPath clipPathUnits="userSpaceOnUse" id="clipPath2">
        <path d="M281 160 L1037 160 L1037 794 L281 794 L281 160 Z"/>
      </clipPath>
    </defs>
    <g fill="white" text-rendering="geometricPrecision" shape-rendering="geometricPrecision" transform="translate(-281,-160)" stroke="white">
      <rect x="281" width="756" height="634" y="160" clip-path="url(#clipPath2)" stroke="none"/>
    </g>
    <g fill="rgb(255,204,0)" text-rendering="geometricPrecision" shape-rendering="geometricPrecision" transform="matrix(1,0,0,1,-281,-160)" stroke="rgb(255,204,0)">
      <rect x="888.625" width="133" height="45" y="258.5575" clip-path="url(#clipPath2)" stroke="none"/>
    </g>
    <g text-rendering="geometricPrecision" stroke-miterlimit="1.45" shape-rendering="geometricPrecision" transform="matrix(1,0,0,1,-281,-160)" stroke-linecap="butt">
      <rect fill="none" x="888.625" width="133" height="45" y="258.5575" clip-path="url(#clipPath2)"/>
      <text x="913.0254" xml:space="preserve" y="285.2118" clip-path="url(#clipPath2)" font-family="sans-serif" stroke="none">ProzessConfig</text>
    </g>
    <g fill="rgb(255,204,0)" text-rendering="geometricPrecision" shape-rendering="geometricPrecision" transform="matrix(1,0,0,1,-281,-160)" stroke="rgb(255,204,0)">
      <rect x="888.625" width="133" height="36" y="175.8125" clip-path="url(#clipPath2)" stroke="none"/>
    </g>
    <g text-rendering="geometricPrecision" stroke-miterlimit="1.45" shape-rendering="geometricPrecision" transform="matrix(1,0,0,1,-281,-160)" stroke-linecap="butt">
      <rect fill="none" x="888.625" width="133" height="36" y="175.8125" clip-path="url(#clipPath2)"/>
      <text x="922.5439" xml:space="preserve" y="197.9668" clip-path="url(#clipPath2)" font-family="sans-serif" stroke="none">RuleConfig</text>
    </g>
    <g fill="rgb(255,204,0)" text-rendering="geometricPrecision" shape-rendering="geometricPrecision" transform="matrix(1,0,0,1,-281,-160)" stroke="rgb(255,204,0)">
      <rect x="635" width="250" height="36" y="474" clip-path="url(#clipPath2)" stroke="none"/>
    </g>
    <g text-rendering="geometricPrecision" stroke-miterlimit="1.45" shape-rendering="geometricPrecision" transform="matrix(1,0,0,1,-281,-160)" stroke-linecap="butt">
      <rect fill="none" x="635" width="250" height="36" y="474" clip-path="url(#clipPath2)"/>
      <text x="704.2422" xml:space="preserve" y="496.1543" clip-path="url(#clipPath2)" font-family="sans-serif" stroke="none">Data Management</text>
    </g>
    <g fill="rgb(255,204,0)" text-rendering="geometricPrecision" shape-rendering="geometricPrecision" transform="matrix(1,0,0,1,-281,-160)" stroke="rgb(255,204,0)">
      <rect x="629" width="98" height="81" y="622.1975" clip-path="url(#clipPath2)" stroke="none"/>
    </g>
    <g text-rendering="geometricPrecision" stroke-miterlimit="1.45" shape-rendering="geometricPrecision" transform="matrix(1,0,0,1,-281,-160)" stroke-linecap="butt">
      <rect fill="none" x="629" width="98" height="81" y="622.1975" clip-path="url(#clipPath2)"/>
      <text x="649.3711" xml:space="preserve" y="666.8518" clip-path="url(#clipPath2)" font-family="sans-serif" stroke="none">Database</text>
    </g>
    <g fill="rgb(255,204,0)" text-rendering="geometricPrecision" shape-rendering="geometricPrecision" transform="matrix(1,0,0,1,-281,-160)" stroke="rgb(255,204,0)">
      <rect x="771.5" width="122" height="36" y="742.1975" clip-path="url(#clipPath2)" stroke="none"/>
    </g>
    <g text-rendering="geometricPrecision" stroke-miterlimit="1.45" shape-rendering="geometricPrecision" transform="matrix(1,0,0,1,-281,-160)" stroke-linecap="butt">
      <rect fill="none" x="771.5" width="122" height="36" y="742.1975" clip-path="url(#clipPath2)"/>
      <text x="807.1318" xml:space="preserve" y="757.3674" clip-path="url(#clipPath2)" font-family="sans-serif" stroke="none">Optional</text>
      <text x="788.0742" xml:space="preserve" y="771.3362" clip-path="url(#clipPath2)" font-family="sans-serif" stroke="none">Other Location</text>
    </g>
    <g fill="rgb(255,204,0)" text-rendering="geometricPrecision" shape-rendering="geometricPrecision" transform="matrix(1,0,0,1,-281,-160)" stroke="rgb(255,204,0)">
      <rect x="296.0275" width="122" height="254" y="175.8125" clip-path="url(#clipPath2)" stroke="none"/>
    </g>
    <g text-rendering="geometricPrecision" stroke-miterlimit="1.45" shape-rendering="geometricPrecision" transform="matrix(1,0,0,1,-281,-160)" stroke-linecap="butt">
      <rect fill="none" x="296.0275" width="122" height="254" y="175.8125" clip-path="url(#clipPath2)"/>
      <text x="312.8244" xml:space="preserve" y="306.9668" clip-path="url(#clipPath2)" font-family="sans-serif" stroke="none">REST Interface</text>
    </g>
    <g fill="rgb(255,204,0)" text-rendering="geometricPrecision" shape-rendering="geometricPrecision" transform="matrix(1,0,0,1,-281,-160)" stroke="rgb(255,204,0)">
      <rect x="635" width="86" height="30" y="510" clip-path="url(#clipPath2)" stroke="none"/>
    </g>
    <g text-rendering="geometricPrecision" stroke-miterlimit="1.45" shape-rendering="geometricPrecision" transform="matrix(1,0,0,1,-281,-160)" stroke-linecap="butt">
      <rect fill="none" x="635" width="86" height="30" y="510" clip-path="url(#clipPath2)"/>
      <text x="647.748" xml:space="preserve" y="529.1543" clip-path="url(#clipPath2)" font-family="sans-serif" stroke="none">Core Data</text>
    </g>
    <g fill="rgb(255,204,0)" text-rendering="geometricPrecision" shape-rendering="geometricPrecision" transform="matrix(1,0,0,1,-281,-160)" stroke="rgb(255,204,0)">
      <rect x="721" width="164" height="30" y="510" clip-path="url(#clipPath2)" stroke="none"/>
    </g>
    <g text-rendering="geometricPrecision" stroke-miterlimit="1.45" shape-rendering="geometricPrecision" transform="matrix(1,0,0,1,-281,-160)" stroke-linecap="butt">
      <rect fill="none" x="721" width="164" height="30" y="510" clip-path="url(#clipPath2)"/>
      <text x="773.0908" xml:space="preserve" y="529.1543" clip-path="url(#clipPath2)" font-family="sans-serif" stroke="none">User Data</text>
    </g>
    <g fill="url(#linearGradient1)" text-rendering="geometricPrecision" shape-rendering="geometricPrecision" transform="matrix(1,0,0,1,-281,-160)" stroke="url(#linearGradient1)">
      <path d="M832.5 629.7725 L890 662.6975 L832.5 695.6225 L775 662.6975 Z" stroke="none" clip-path="url(#clipPath2)"/>
    </g>
    <g text-rendering="geometricPrecision" stroke-miterlimit="1.45" shape-rendering="geometricPrecision" transform="matrix(1,0,0,1,-281,-160)" stroke-linecap="butt">
      <path fill="none" d="M832.5 629.7725 L890 662.6975 L832.5 695.6225 L775 662.6975 Z" clip-path="url(#clipPath2)"/>
      <text x="807.501" xml:space="preserve" y="659.8674" clip-path="url(#clipPath2)" font-family="sans-serif" stroke="none">External</text>
      <text x="799.6816" xml:space="preserve" y="673.8362" clip-path="url(#clipPath2)" font-family="sans-serif" stroke="none">Datastore?</text>
    </g>
    <g fill="rgb(255,204,0)" text-rendering="geometricPrecision" shape-rendering="geometricPrecision" transform="matrix(1,0,0,1,-281,-160)" stroke="rgb(255,204,0)">
      <rect x="642" width="206.8" height="65.85" y="248.1325" clip-path="url(#clipPath2)" stroke="none"/>
    </g>
    <g text-rendering="geometricPrecision" stroke-miterlimit="1.45" shape-rendering="geometricPrecision" transform="matrix(1,0,0,1,-281,-160)" stroke-linecap="butt">
      <rect fill="none" x="642" width="206.8" height="65.85" y="248.1325" clip-path="url(#clipPath2)"/>
      <text x="702.6295" xml:space="preserve" y="285.2118" clip-path="url(#clipPath2)" font-family="sans-serif" stroke="none">Prozess Model</text>
    </g>
    <g fill="rgb(255,204,0)" text-rendering="geometricPrecision" shape-rendering="geometricPrecision" transform="matrix(1,0,0,1,-281,-160)" stroke="rgb(255,204,0)">
      <rect x="542.8" width="159" height="36" y="175.8125" clip-path="url(#clipPath2)" stroke="none"/>
    </g>
    <g text-rendering="geometricPrecision" stroke-miterlimit="1.45" shape-rendering="geometricPrecision" transform="matrix(1,0,0,1,-281,-160)" stroke-linecap="butt">
      <rect fill="none" x="542.8" width="159" height="36" y="175.8125" clip-path="url(#clipPath2)"/>
      <text x="589.048" xml:space="preserve" y="197.9668" clip-path="url(#clipPath2)" font-family="sans-serif" stroke="none">Rule Model</text>
    </g>
    <g fill="rgb(255,204,0)" text-rendering="geometricPrecision" shape-rendering="geometricPrecision" transform="matrix(1,0,0,1,-281,-160)" stroke="rgb(255,204,0)">
      <rect x="296.0275" width="122" height="45" y="469.5" clip-path="url(#clipPath2)" stroke="none"/>
    </g>
    <g text-rendering="geometricPrecision" stroke-miterlimit="1.45" shape-rendering="geometricPrecision" transform="matrix(1,0,0,1,-281,-160)" stroke-linecap="butt">
      <rect fill="none" x="296.0275" width="122" height="45" y="469.5" clip-path="url(#clipPath2)"/>
      <text x="310.964" xml:space="preserve" y="496.1543" clip-path="url(#clipPath2)" font-family="sans-serif" stroke="none">Auth Validation</text>
    </g>
    <g fill="rgb(255,204,0)" text-rendering="geometricPrecision" shape-rendering="geometricPrecision" transform="matrix(1,0,0,1,-281,-160)" stroke="rgb(255,204,0)">
      <rect x="454.7084" width="133" height="57.52" y="342.7024" clip-path="url(#clipPath2)" stroke="none"/>
    </g>
    <g text-rendering="geometricPrecision" stroke-miterlimit="1.45" shape-rendering="geometricPrecision" transform="matrix(1,0,0,1,-281,-160)" stroke-linecap="butt">
      <rect fill="none" x="454.7084" width="133" height="57.52" y="342.7024" clip-path="url(#clipPath2)"/>
      <text x="495.2338" xml:space="preserve" y="368.6324" clip-path="url(#clipPath2)" font-family="sans-serif" stroke="none">Progress</text>
      <text x="499.8627" xml:space="preserve" y="382.6011" clip-path="url(#clipPath2)" font-family="sans-serif" stroke="none">History</text>
      <path fill="none" d="M678 540 L678 622.1975" clip-path="url(#clipPath2)"/>
      <path fill="none" d="M832.5 540.0185 L832.5 629.7473" clip-path="url(#clipPath2)"/>
      <path fill="none" d="M774.9866 662.6975 L727 662.6975" clip-path="url(#clipPath2)"/>
      <rect x="740.8408" y="653.7131" clip-path="url(#clipPath2)" fill="white" width="20.3184" height="17.9688" stroke="none"/>
      <rect stroke-linecap="square" x="740.8408" y="653.7131" clip-path="url(#clipPath2)" fill="none" width="20.3184" height="17.9688" stroke-miterlimit="1.6"/>
      <text x="742.8408" xml:space="preserve" y="666.8518" clip-path="url(#clipPath2)" font-family="sans-serif" stroke="none">No</text>
      <path fill="none" d="M832.5 695.5942 L832.5 742.1975" clip-path="url(#clipPath2)"/>
      <rect x="820.0176" y="709.9256" clip-path="url(#clipPath2)" fill="white" width="24.9648" height="17.9688" stroke="none"/>
      <rect stroke-linecap="square" x="820.0176" y="709.9256" clip-path="url(#clipPath2)" fill="none" width="24.9648" height="17.9688" stroke-miterlimit="1.6"/>
      <text x="822.0176" xml:space="preserve" y="723.0643" clip-path="url(#clipPath2)" font-family="sans-serif" stroke="none">Yes</text>
      <path fill="none" d="M888.625 281.0575 L848.8 281.0575" clip-path="url(#clipPath2)"/>
      <path fill="none" d="M642 281.0575 L418.0584 281.0575" clip-path="url(#clipPath2)"/>
      <path fill="none" d="M760 313.9892 L760 474" clip-path="url(#clipPath2)"/>
      <path fill="none" d="M888.625 193.8125 L701.8 193.8125" clip-path="url(#clipPath2)"/>
      <path fill="none" d="M542.8 193.7897 L426.0468 193.7563" clip-path="url(#clipPath2)"/>
      <path d="M418.0468 193.754 L430.0454 198.7574 L427.0468 193.7565 L430.0483 188.7574 Z" clip-path="url(#clipPath2)" stroke="none"/>
      <path fill="none" d="M357.0275 429.8125 L357.0275 469.5" clip-path="url(#clipPath2)"/>
      <path fill="none" d="M418.0275 492 L635 492" clip-path="url(#clipPath2)"/>
      <path fill="none" d="M418.0584 371.4625 L454.7084 371.4625" clip-path="url(#clipPath2)"/>
      <path fill="none" d="M641.9716 304.0207 L521.2084 304.0207 L521.2084 342.7025" clip-path="url(#clipPath2)"/>
      <path fill="none" d="M587.7084 371.4625 L668.1084 371.4625 L668.1084 474.0191" clip-path="url(#clipPath2)"/>
    </g>
  </g>
</svg>
