<?xml version="1.0" encoding="UTF-8"?><svg xmlns="http://www.w3.org/2000/svg" xmlns:xlink="http://www.w3.org/1999/xlink" fill-opacity="1" color-rendering="auto" color-interpolation="auto" text-rendering="auto" stroke="black" stroke-linecap="square" width="369" stroke-miterlimit="10" shape-rendering="auto" stroke-opacity="1" fill="black" stroke-dasharray="none" font-weight="normal" stroke-width="1" height="308" font-family="'Dialog'" font-style="normal" stroke-linejoin="miter" font-size="12px" stroke-dashoffset="0" image-rendering="auto">
  <!--Generated by ySVG 2.6-->
  <defs id="genericDefs"/>
  <g>
    <defs id="defs1">
      <clipPath clipPathUnits="userSpaceOnUse" id="clipPath1">
        <path d="M0 0 L369 0 L369 308 L0 308 L0 0 Z"/>
      </clipPath>
      <clipPath clipPathUnits="userSpaceOnUse" id="clipPath2">
        <path d="M293 51 L662 51 L662 359 L293 359 L293 51 Z"/>
      </clipPath>
    </defs>
    <g fill="white" text-rendering="geometricPrecision" shape-rendering="geometricPrecision" transform="translate(-293,-51)" stroke="white">
      <rect x="293" width="369" height="308" y="51" clip-path="url(#clipPath2)" stroke="none"/>
    </g>
    <g fill="rgb(204,255,204)" text-rendering="geometricPrecision" shape-rendering="geometricPrecision" transform="matrix(1,0,0,1,-293,-51)" stroke="rgb(204,255,204)">
      <rect x="308" width="113" height="42" y="208" clip-path="url(#clipPath2)" stroke="none"/>
    </g>
    <g text-rendering="geometricPrecision" stroke-miterlimit="1.45" shape-rendering="geometricPrecision" transform="matrix(1,0,0,1,-293,-51)" stroke-linecap="butt">
      <rect fill="none" x="308" width="113" height="42" y="208" clip-path="url(#clipPath2)"/>
      <text x="337.4531" xml:space="preserve" y="233.1543" clip-path="url(#clipPath2)" font-family="sans-serif" stroke="none">Frontend</text>
    </g>
    <g fill="rgb(153,204,255)" text-rendering="geometricPrecision" shape-rendering="geometricPrecision" transform="matrix(1,0,0,1,-293,-51)" stroke="rgb(153,204,255)">
      <rect x="549" width="98" height="36" y="66" clip-path="url(#clipPath2)" stroke="none"/>
    </g>
    <g text-rendering="geometricPrecision" stroke-miterlimit="1.45" shape-rendering="geometricPrecision" transform="matrix(1,0,0,1,-293,-51)" stroke-linecap="butt">
      <rect fill="none" x="549" width="98" height="36" y="66" clip-path="url(#clipPath2)"/>
      <text x="583.9375" xml:space="preserve" y="88.1543" clip-path="url(#clipPath2)" font-family="sans-serif" stroke="none">Auth</text>
    </g>
    <g fill="silver" text-rendering="geometricPrecision" shape-rendering="geometricPrecision" transform="matrix(1,0,0,1,-293,-51)" stroke="silver">
      <rect x="549" width="98" height="42" y="208" clip-path="url(#clipPath2)" stroke="none"/>
    </g>
    <g text-rendering="geometricPrecision" stroke-miterlimit="1.45" shape-rendering="geometricPrecision" transform="matrix(1,0,0,1,-293,-51)" stroke-linecap="butt">
      <rect fill="none" x="549" width="98" height="42" y="208" clip-path="url(#clipPath2)"/>
      <text x="572.1309" xml:space="preserve" y="233.1543" clip-path="url(#clipPath2)" font-family="sans-serif" stroke="none">Backend</text>
    </g>
    <g fill="rgb(255,255,153)" text-rendering="geometricPrecision" shape-rendering="geometricPrecision" transform="matrix(1,0,0,1,-293,-51)" stroke="rgb(255,255,153)">
      <rect x="549" width="98" height="36" y="308" clip-path="url(#clipPath2)" stroke="none"/>
    </g>
    <g text-rendering="geometricPrecision" stroke-miterlimit="1.45" shape-rendering="geometricPrecision" transform="matrix(1,0,0,1,-293,-51)" stroke-linecap="butt">
      <rect fill="none" x="549" width="98" height="36" y="308" clip-path="url(#clipPath2)"/>
      <text x="551.7139" xml:space="preserve" y="330.1543" clip-path="url(#clipPath2)" font-family="sans-serif" stroke="none">Daten Speicher</text>
      <path fill="none" d="M549 84 L364.5 84 L364.5 208" clip-path="url(#clipPath2)"/>
      <rect x="413.5317" y="68.0312" clip-path="url(#clipPath2)" fill="white" width="54.291" height="31.9375" stroke="none"/>
      <rect stroke-linecap="square" x="413.5317" y="68.0312" clip-path="url(#clipPath2)" fill="none" width="54.291" height="31.9375" stroke-miterlimit="1.6"/>
      <text x="415.5317" xml:space="preserve" y="81.1699" clip-path="url(#clipPath2)" font-family="sans-serif" stroke="none">Redirect</text>
      <text x="429.3101" xml:space="preserve" y="95.1387" clip-path="url(#clipPath2)" font-family="sans-serif" stroke="none">JWT</text>
      <path fill="none" d="M421 229 L549 229" clip-path="url(#clipPath2)"/>
      <rect x="467.5664" y="220.0156" clip-path="url(#clipPath2)" fill="white" width="34.8672" height="17.9688" stroke="none"/>
      <rect stroke-linecap="square" x="467.5664" y="220.0156" clip-path="url(#clipPath2)" fill="none" width="34.8672" height="17.9688" stroke-miterlimit="1.6"/>
      <text x="469.5664" xml:space="preserve" y="233.1543" clip-path="url(#clipPath2)" font-family="sans-serif" stroke="none">REST</text>
      <path fill="none" d="M598 208 L598 102" clip-path="url(#clipPath2)"/>
      <rect x="565.1328" y="146.0156" clip-path="url(#clipPath2)" fill="white" width="65.7344" height="17.9688" stroke="none"/>
      <rect stroke-linecap="square" x="565.1328" y="146.0156" clip-path="url(#clipPath2)" fill="none" width="65.7344" height="17.9688" stroke-miterlimit="1.6"/>
      <text x="567.1328" xml:space="preserve" y="159.1543" clip-path="url(#clipPath2)" font-family="sans-serif" stroke="none">Verify JWT</text>
      <path fill="none" d="M598 250 L598 308" clip-path="url(#clipPath2)"/>
    </g>
  </g>
</svg>
